<?xml version="1.0" encoding="UTF-8"?>
<svg width="199px" height="61px" viewBox="0 0 199 61" version="1.1" xmlns="http://www.w3.org/2000/svg" xmlns:xlink="http://www.w3.org/1999/xlink">
    <!-- Generator: Sketch 49.3 (51167) - http://www.bohemiancoding.com/sketch -->
    <title>Group 2</title>
    <desc>Created with Sketch.</desc>
    <defs></defs>
    <g id="Page-1" stroke="none" stroke-width="1" fill="none" fill-rule="evenodd">
        <g id="Group-2" transform="translate(1.000000, 1.000000)">
            <g id="Group">
                <path d="M81.6474,33.6757895 L81.6474,17.3631579 L33.233575,42.0147368 L33.233575,58.3284211 L81.6474,33.6757895 Z M65.06085,25.7021053 L65.06085,9.46210526 L16.647025,34.1136842 L16.647025,50.2821053 L65.06085,25.7021053 Z M49.041125,17.5084211 L49.041125,1.04947368 L0.55555,25.8484211 L0.55555,42.0884211 L49.041125,17.5084211 Z" id="Shape" stroke="#4CAF50" stroke-width="0.103" fill="#4CAF50" fill-rule="nonzero"></path>
                <polygon id="Shape" stroke="#FFFFFF" stroke-width="0.103" fill="#FFFFFF" points="33.233575 17.5084211 33.233575 1.26947368 81.6474 25.8484211 81.6474 42.0884211"></polygon>
                <path d="M57.3344,29.5063158 L57.3344,13.3389474 L41.24395,21.6052632 L41.24395,37.8452632 L57.3344,29.5063158 Z M73.4966,37.6252632 L73.4966,21.4589474 L57.3344,29.7242105 L57.3344,46.0378947 L73.4966,37.6252632 Z M41.24395,21.4589474 L41.24395,5.14631579 L25.08175,13.4126316 L25.08175,29.7242105 L41.24395,21.4589474 Z" id="Shape" stroke="#4CAF50" stroke-width="0.103" fill="#4CAF50" fill-rule="nonzero"></path>
                <polygon id="Shape" stroke="#FFFFFF" stroke-width="0.103" fill="#FFFFFF" points="17.143125 25.7021053 17.143125 9.46210526 65.627675 34.1136842 65.627675 50.2821053"></polygon>
                <path d="M57.3344,46.0378947 L57.3344,29.7242105 L40.818575,38.0652632 L40.818575,54.3768421 L57.3344,46.0378947 Z M24.728125,29.7242105 L24.728125,13.4126316 L8.211275,21.7515789 L8.211275,38.0652632 L24.728125,29.7242105 Z M41.03075,37.8452632 L41.03075,21.6052632 L24.514925,29.9442105 L24.514925,46.1842105 L41.03075,37.8452632 Z" id="Shape" stroke="#000000" stroke-width="0.103" fill="#4CAF50" fill-rule="nonzero"></path>
                <polygon id="Shape" stroke="#FFFFFF" stroke-width="0.103" fill="#FFFFFF" points="0.55555 33.9684211 0.55555 17.8021053 49.041125 42.3810526 49.041125 58.62"></polygon>
                <path d="M24.514925,46.3305263 L24.514925,30.1642105 L16.8592,34.1136842 L16.8592,50.2821053 L24.514925,46.3305263 Z M8.211275,38.3568421 L8.211275,22.0442105 L0.55555,25.9947368 L0.55555,42.3063158 L8.211275,38.3568421 Z M40.818575,54.3768421 L40.818575,38.0652632 L33.233575,42.0147368 L33.233575,58.3284211 L40.818575,54.3768421 Z" id="Shape" stroke="#4CAF50" stroke-width="0.103" fill="#4CAF50" fill-rule="nonzero"></path>
                <path d="M49.041125,0.756842105 L0.201925,25.7021053 L0.201925,42.6736842 M65.273025,9.09684211 L16.3631,33.9684211 L16.3631,50.7936842 M81.6474,17.1431579 L32.595,42.5263158 L32.595,58.6936842 M32.595,0.245263158 L81.931325,25.4831579 L81.931325,42.6010526 M16.3631,8.80421053 L65.77015,33.9684211 L65.77015,51.0863158 M0.201925,17.2894737 L49.537225,42.5263158 L49.537225,59.4978947" id="Shape" stroke="#4CAF50" stroke-width="0.943"></path>
            </g>
            <path d="M121.641,8.641 C121.961,8.321 122.602,8 123.563,8 C124.204,8 124.844,8.321 125.165,8.961 C125.806,9.281 125.806,9.922 125.806,11.203 L125.806,32.347 C125.806,33.308 125.806,34.269 125.165,34.589 C124.845,35.23 124.204,35.23 123.243,35.23 C122.602,35.23 121.962,35.23 121.641,34.589 C121,34.269 121,33.628 121,32.667 L121,10.883 C121.001,9.922 121.001,9.281 121.641,8.641 Z M133.746,6.485 C132.785,5.203 131.504,3.922 129.902,3.281 C128.3,2.32 125.737,2 122.854,2 C120.291,2 117.728,2.641 116.126,3.602 C114.204,4.563 112.922,5.845 111.961,7.446 C111.32,8.728 111,10.65 111,12.571 L111,31.153 C111,32.434 111.321,33.395 111.321,34.356 C111.962,35.637 112.602,36.918 113.243,37.559 C114.204,38.84 115.486,39.801 117.087,40.121 C118.689,40.762 120.611,41.082 122.854,41.082 C125.737,41.082 127.979,40.762 129.902,39.801 C131.824,38.84 133.105,37.559 133.746,35.957 C134.707,34.355 135.028,32.754 135.028,30.832 L135.028,12.892 C135.027,10.009 134.386,8.087 133.746,6.485 Z M94.729,7.447 L88,7.447 L88,2 L110.747,2 L110.747,7.447 L104.34,7.447 L104.34,39.161 L94.729,39.161 L94.729,7.447 Z" id="Shape" fill="#4CAF50" fill-rule="nonzero"></path>
            <rect id="Rectangle" fill="#4CAF50" x="137" y="19" width="9" height="6"></rect>
            <path d="M183.641,8.641 C183.961,8.321 184.602,8 185.563,8 C186.204,8 186.844,8.32 187.165,8.641 C187.485,9.282 187.806,9.922 187.806,10.883 L187.806,32.348 C187.806,33.309 187.486,33.95 187.165,34.59 C186.844,34.91 186.204,35.231 185.243,35.231 C184.602,35.231 183.962,34.911 183.641,34.59 C183,34.27 183,33.309 183,32.348 L183,10.563 C183.001,9.602 183.001,8.962 183.641,8.641 Z M195.746,6.484 C194.785,5.203 193.503,3.922 191.902,3.281 C189.98,2.32 187.737,2 184.854,2 C181.971,2 179.729,2.32 178.126,3.281 C176.204,4.242 174.923,5.843 173.961,7.445 C173.32,8.726 173,10.328 173,12.57 L173,30.832 C173,32.434 173,33.394 173.32,34.355 C173.64,35.636 174.281,36.597 175.242,37.558 C176.203,38.839 177.484,39.48 179.086,40.12 C180.688,40.761 182.61,41.081 184.853,41.081 C187.736,41.081 189.979,40.761 191.901,39.8 C193.482786,38.8592013 194.804201,37.5377862 195.745,35.956 C196.386,34.354 197.027,32.753 197.027,30.831 L197.027,12.569 C197.028,10.007 196.386,8.085 195.746,6.484 Z M160.166,8.321 C160.486,8.962 160.807,9.923 160.807,11.524 L160.807,29.786 C160.807,31.067 160.487,32.348 159.846,32.989 C159.203,33.63 158.563,33.95 157.602,33.95 L156,33.95 L156,7.36 L157.602,7.36 C158.563,7.36 159.524,7.68 160.166,8.321 Z M164.94,38.879 C166.862,38.238 168.143,36.957 169.424,35.356 C170.385,33.754 171.026,31.833 171.026,29.911 L171.026,12.29 C171.026,10.688 170.706,9.407 170.385,8.126 C170.065,7.165 169.744,6.524 169.424,6.204 C168.783,5.243 168.143,4.602 167.182,4.282 C166.221,3.641 165.26,3.001 163.979,3.001 C163.018,2.681 161.417,2.36 159.813,2.36 L147,2.36 L147,39.84 L159.812,39.84 C161.416,39.84 163.338,39.52 164.94,38.879 Z" id="Shape" fill="#4CAF50" fill-rule="nonzero"></path>
            <path d="M94.2929688,59.1953125 C91.441392,59.1953125 89.9440111,57.5481936 89.8007812,54.2539062 L92.3691406,53.7167969 C92.4342451,55.8587347 93.0462182,56.9296875 94.2050781,56.9296875 C94.6542991,56.9296875 94.9879546,56.7929701 95.2060547,56.5195312 C95.4241547,56.2460924 95.5332031,55.8782575 95.5332031,55.4160156 C95.5332031,54.9667946 95.4518237,54.5550149 95.2890625,54.1806641 C95.1263013,53.8063132 94.9375011,53.5003267 94.7226562,53.2626953 C94.5078114,53.0250639 94.2018249,52.7304705 93.8046875,52.3789062 L91.6757812,50.5332031 C91.0507781,49.9863254 90.585288,49.4182972 90.2792969,48.8291016 C89.9733058,48.2399059 89.8203125,47.5026086 89.8203125,46.6171875 C89.8203125,45.3606708 90.189775,44.3841181 90.9287109,43.6875 C91.6676469,42.9908819 92.6816342,42.6360678 93.9707031,42.6230469 C94.563154,42.6165364 95.0872373,42.6897779 95.5429688,42.8427734 C95.9987002,42.995769 96.374673,43.2008451 96.6708984,43.4580078 C96.9671239,43.7151706 97.2145172,44.0358054 97.4130859,44.4199219 C97.6116546,44.8040384 97.7597651,45.2027974 97.8574219,45.6162109 C97.9550786,46.0296245 98.0234373,46.4902318 98.0625,46.9980469 L95.5429688,47.4960938 C95.5299479,47.1705713 95.5087892,46.887371 95.4794922,46.6464844 C95.4501952,46.4055978 95.3997399,46.1614596 95.328125,45.9140625 C95.2565101,45.6666654 95.1637375,45.4664721 95.0498047,45.3134766 C94.9358718,45.160481 94.7828786,45.0384119 94.5908203,44.9472656 C94.3987621,44.8561193 94.1757825,44.8203124 93.921875,44.8398438 C93.4856749,44.8658855 93.1520194,45.0107409 92.9208984,45.2744141 C92.6897775,45.5380873 92.5742188,45.8912738 92.5742188,46.3339844 C92.5742188,46.8548203 92.6767568,47.2828759 92.8818359,47.6181641 C93.0869151,47.9534522 93.4075499,48.3131491 93.84375,48.6972656 L95.953125,50.5332031 C96.3046893,50.8522151 96.6106758,51.1614568 96.8710938,51.4609375 C97.1315117,51.7604182 97.3805327,52.1022116 97.6181641,52.4863281 C97.8557955,52.8704446 98.0364577,53.2936175 98.1601562,53.7558594 C98.2838548,54.2181013 98.3457031,54.7063776 98.3457031,55.2207031 C98.3457031,56.3990944 97.9729855,57.3561161 97.2275391,58.0917969 C96.4820926,58.8274776 95.5039123,59.1953125 94.2929688,59.1953125 Z M99.9742187,59 L99.9742187,42.8085938 L106.751562,42.8085938 L106.751562,44.8886719 L102.923437,44.8886719 L102.923437,49.5371094 L105.950781,49.5371094 L105.950781,51.6171875 L102.923437,51.6171875 L102.923437,56.9589844 L106.800391,56.9589844 L106.800391,59 L99.9742187,59 Z M108.399609,59 L108.399609,42.8085938 L111.348828,42.8085938 L111.348828,56.9589844 L115.225781,56.9589844 L115.225781,59 L108.399609,59 Z M116.688281,59 L116.688281,42.8085938 L123.338672,42.8085938 L123.338672,44.8496094 L119.6375,44.8496094 L119.6375,49.5566406 L122.596484,49.5566406 L122.596484,51.6367188 L119.6375,51.6367188 L119.6375,59 L116.688281,59 Z M133.65625,59.1953125 C130.804673,59.1953125 129.307292,57.5481936 129.164062,54.2539062 L131.732422,53.7167969 C131.797526,55.8587347 132.409499,56.9296875 133.568359,56.9296875 C134.01758,56.9296875 134.351236,56.7929701 134.569336,56.5195312 C134.787436,56.2460924 134.896484,55.8782575 134.896484,55.4160156 C134.896484,54.9667946 134.815105,54.5550149 134.652344,54.1806641 C134.489583,53.8063132 134.300782,53.5003267 134.085937,53.2626953 C133.871093,53.0250639 133.565106,52.7304705 133.167969,52.3789062 L131.039062,50.5332031 C130.414059,49.9863254 129.948569,49.4182972 129.642578,48.8291016 C129.336587,48.2399059 129.183594,47.5026086 129.183594,46.6171875 C129.183594,45.3606708 129.553056,44.3841181 130.291992,43.6875 C131.030928,42.9908819 132.044915,42.6360678 133.333984,42.6230469 C133.926435,42.6165364 134.450519,42.6897779 134.90625,42.8427734 C135.361981,42.995769 135.737954,43.2008451 136.03418,43.4580078 C136.330405,43.7151706 136.577798,44.0358054 136.776367,44.4199219 C136.974936,44.8040384 137.123046,45.2027974 137.220703,45.6162109 C137.31836,46.0296245 137.386719,46.4902318 137.425781,46.9980469 L134.90625,47.4960938 C134.893229,47.1705713 134.87207,46.887371 134.842773,46.6464844 C134.813476,46.4055978 134.763021,46.1614596 134.691406,45.9140625 C134.619791,45.6666654 134.527019,45.4664721 134.413086,45.3134766 C134.299153,45.160481 134.14616,45.0384119 133.954102,44.9472656 C133.762043,44.8561193 133.539064,44.8203124 133.285156,44.8398438 C132.848956,44.8658855 132.515301,45.0107409 132.28418,45.2744141 C132.053059,45.5380873 131.9375,45.8912738 131.9375,46.3339844 C131.9375,46.8548203 132.040038,47.2828759 132.245117,47.6181641 C132.450196,47.9534522 132.770831,48.3131491 133.207031,48.6972656 L135.316406,50.5332031 C135.667971,50.8522151 135.973957,51.1614568 136.234375,51.4609375 C136.494793,51.7604182 136.743814,52.1022116 136.981445,52.4863281 C137.219077,52.8704446 137.399739,53.2936175 137.523437,53.7558594 C137.647136,54.2181013 137.708984,54.7063776 137.708984,55.2207031 C137.708984,56.3990944 137.336267,57.3561161 136.59082,58.0917969 C135.845374,58.8274776 134.867194,59.1953125 133.65625,59.1953125 Z M140.919531,59 L140.919531,44.9863281 L138.204687,44.9863281 L138.204687,42.8085938 L146.495703,42.8085938 L146.495703,44.9863281 L143.86875,44.9863281 L143.86875,59 L140.919531,59 Z M152.089062,59.1953125 C150.422387,59.1953125 149.227738,58.7428431 148.505078,57.8378906 C147.782418,56.9329382 147.421094,55.6080816 147.421094,53.8632812 L147.421094,47.8867188 C147.421094,47.0273395 147.502473,46.2819042 147.665234,45.6503906 C147.827996,45.0188771 148.090037,44.4720075 148.451367,44.0097656 C148.812697,43.5475237 149.296091,43.2008475 149.901562,42.9697266 C150.507034,42.7386056 151.236194,42.6230469 152.089062,42.6230469 C153.749227,42.6230469 154.942249,43.069006 155.668164,43.9609375 C156.394079,44.852869 156.757031,46.1614497 156.757031,47.8867188 L156.757031,53.8632812 C156.757031,54.7096396 156.674024,55.4534473 156.508008,56.0947266 C156.341991,56.7360058 156.078322,57.2926409 155.716992,57.7646484 C155.355662,58.236656 154.872269,58.5930978 154.266797,58.8339844 C153.661325,59.074871 152.935421,59.1953125 152.089062,59.1953125 Z M151.346875,56.8808594 C151.555209,56.9654952 151.802603,57.0078125 152.089062,57.0078125 C152.375522,57.0078125 152.61966,56.9654952 152.821484,56.8808594 C153.023308,56.7962235 153.184439,56.6855476 153.304883,56.5488281 C153.425326,56.4121087 153.519726,56.233074 153.588086,56.0117188 C153.656446,55.7903635 153.702018,55.5690115 153.724805,55.3476562 C153.747591,55.126301 153.758984,54.8626317 153.758984,54.5566406 L153.758984,47.203125 C153.758984,46.812498 153.739453,46.4869805 153.700391,46.2265625 C153.661328,45.9661445 153.584831,45.7203788 153.470898,45.4892578 C153.356966,45.2581369 153.186069,45.0856125 152.958203,44.9716797 C152.730337,44.8577468 152.440627,44.8007812 152.089062,44.8007812 C151.737498,44.8007812 151.44616,44.8577468 151.215039,44.9716797 C150.983918,45.0856125 150.813021,45.2581369 150.702344,45.4892578 C150.591666,45.7203788 150.516797,45.9661445 150.477734,46.2265625 C150.438672,46.4869805 150.419141,46.812498 150.419141,47.203125 L150.419141,54.5566406 C150.419141,54.8626317 150.430534,55.126301 150.45332,55.3476562 C150.476107,55.5690115 150.521679,55.7903635 150.590039,56.0117188 C150.658399,56.233074 150.751171,56.4121087 150.868359,56.5488281 C150.985547,56.6855476 151.145051,56.7962235 151.346875,56.8808594 Z M161.764453,49.7226562 L162.477344,49.7226562 C163.349744,49.7226562 163.969855,49.5371112 164.337695,49.1660156 C164.705536,48.79492 164.889453,48.1601607 164.889453,47.2617188 C164.889453,46.395829 164.729949,45.775718 164.410937,45.4013672 C164.091925,45.0270164 163.505994,44.8398438 162.653125,44.8398438 L161.764453,44.8398438 L161.764453,49.7226562 Z M158.815234,59 L158.815234,42.8085938 L162.526172,42.8085938 C163.379041,42.8085938 164.111455,42.87858 164.723437,43.0185547 C165.33542,43.1585293 165.867641,43.392902 166.320117,43.7216797 C166.772593,44.0504574 167.111132,44.4964165 167.335742,45.0595703 C167.560353,45.6227242 167.672656,46.3111938 167.672656,47.125 C167.672656,48.1406301 167.521291,48.9706999 167.218555,49.6152344 C166.915819,50.2597688 166.416149,50.7285142 165.719531,51.0214844 L167.965625,59 L165.006641,59 L163.073047,51.6074219 L161.764453,51.6074219 L161.764453,59 L158.815234,59 Z M172.728906,53.3164062 L174.896875,53.3164062 L173.812891,46.6660156 L172.728906,53.3164062 Z M168.969141,59 L172.260156,42.8085938 L175.336328,42.8085938 L178.617578,59 L175.873437,59 L175.219141,55.2402344 L172.416406,55.2402344 L171.752344,59 L168.969141,59 Z M184.113281,59.2148438 C182.583326,59.2148438 181.481449,58.7363329 180.807617,57.7792969 C180.133786,56.8222608 179.796875,55.4290456 179.796875,53.5996094 L179.796875,48.3261719 C179.796875,47.3951776 179.870116,46.5927768 180.016602,45.9189453 C180.163087,45.2451138 180.408852,44.6542994 180.753906,44.1464844 C181.09896,43.6386693 181.574216,43.2578138 182.179687,43.0039062 C182.785159,42.7499987 183.527339,42.6230469 184.40625,42.6230469 C186.00782,42.6230469 187.156898,43.0152956 187.853516,43.7998047 C188.550134,44.5843138 188.898437,45.7740806 188.898437,47.3691406 L188.898437,48.1601562 L186.076172,48.1601562 L186.076172,47.3203125 C186.076172,46.9622378 186.068034,46.669272 186.051758,46.4414062 C186.035482,46.2135405 185.99642,45.9840506 185.93457,45.7529297 C185.872721,45.5218087 185.783204,45.3444017 185.666016,45.2207031 C185.548828,45.0970046 185.389324,44.9960941 185.1875,44.9179688 C184.985676,44.8398434 184.738283,44.8007812 184.445312,44.8007812 C184.223957,44.8007812 184.027019,44.8284502 183.854492,44.8837891 C183.681965,44.9391279 183.53711,45.0074866 183.419922,45.0888672 C183.302734,45.1702478 183.203451,45.2858065 183.12207,45.4355469 C183.04069,45.5852872 182.978841,45.7301425 182.936523,45.8701172 C182.894206,46.0100918 182.861654,46.1907541 182.838867,46.4121094 C182.816081,46.6334646 182.801432,46.8287752 182.794922,46.9980469 C182.788411,47.1673186 182.785156,47.3854153 182.785156,47.6523438 L182.785156,54.1855469 C182.785156,55.1621143 182.905598,55.8766253 183.146484,56.3291016 C183.387371,56.7815778 183.846351,57.0078125 184.523437,57.0078125 C184.875002,57.0078125 185.169595,56.9410814 185.407227,56.8076172 C185.644858,56.674153 185.830403,56.4723321 185.963867,56.2021484 C186.097331,55.9319648 186.191731,55.6227231 186.24707,55.2744141 C186.302409,54.926105 186.330078,54.5045598 186.330078,54.0097656 L186.330078,52.6816406 L184.582031,52.6816406 L184.582031,50.7773438 L188.986328,50.7773438 L188.986328,59 L187.072266,59 L186.857422,57.359375 C186.369138,58.5963604 185.454434,59.2148438 184.113281,59.2148438 Z M191.112891,59 L191.112891,42.8085938 L197.890234,42.8085938 L197.890234,44.8886719 L194.062109,44.8886719 L194.062109,49.5371094 L197.089453,49.5371094 L197.089453,51.6171875 L194.062109,51.6171875 L194.062109,56.9589844 L197.939062,56.9589844 L197.939062,59 L191.112891,59 Z" id="SELF-STORAGE" fill="#4CAF50"></path>
        </g>
    </g>
</svg>